<svg width="128" height="128" viewBox="0 0 128 128" fill="none" xmlns="http://www.w3.org/2000/svg">
<mask id="mask0_235_512" style="mask-type:alpha" maskUnits="userSpaceOnUse" x="0" y="0" width="128" height="128">
<rect width="128" height="128" fill="black"/>
</mask>
<g mask="url(#mask0_235_512)">
<path d="M2.60158 0.546811C2.49864 0.553013 2.41888 0.631845 2.42373 0.723023C2.42804 0.814201 2.51481 0.882899 2.61775 0.876697C2.72068 0.870555 2.80044 0.79172 2.79559 0.700542C2.79128 0.609304 2.70451 0.540311 2.60158 0.546811Z" fill="white" fill-opacity="0.9"/>
<path d="M27.231 2.43321C27.2267 2.35073 27.3016 2.27661 27.3948 2.27083C27.4875 2.2654 27.5694 2.33004 27.5732 2.41251C27.5775 2.49498 27.5026 2.56911 27.4099 2.57489C27.3129 2.58074 27.2348 2.51568 27.231 2.43321Z" fill="white" fill-opacity="0.9"/>
<path d="M36.3883 4.32107C36.0558 4.3414 35.7977 4.59717 35.8122 4.89253C35.8273 5.18789 36.1086 5.41097 36.4417 5.39099C36.7748 5.37066 37.0324 5.11484 37.0178 4.81948C37.0033 4.52412 36.7214 4.30109 36.3883 4.32107Z" fill="white" fill-opacity="0.9"/>
<path d="M47.5818 9.47684C47.4153 9.48704 47.2865 9.61489 47.2935 9.76242C47.3011 9.91025 47.4423 10.0218 47.6088 10.0116C47.7748 10.0015 47.9036 9.87358 47.8966 9.72611C47.889 9.57822 47.7484 9.46665 47.5818 9.47684Z" fill="white" fill-opacity="0.9"/>
<path d="M51.4809 2.53473C51.3392 2.54308 51.2293 2.65209 51.2352 2.7778C51.2417 2.90386 51.3618 2.99867 51.503 2.99033C51.6453 2.98162 51.7552 2.87261 51.7488 2.74691C51.7423 2.62084 51.6227 2.52603 51.4809 2.53473Z" fill="white" fill-opacity="0.9"/>
<path d="M74.5933 7.08965C74.5879 6.98721 74.6768 6.89889 74.7921 6.89203C74.9075 6.88512 75.0045 6.9621 75.0099 7.06419C75.0147 7.16664 74.9258 7.25496 74.8105 7.26187C74.6951 7.26551 74.5981 7.18847 74.5933 7.08965Z" fill="white" fill-opacity="0.9"/>
<path d="M88.0066 11.2693C87.756 11.2842 87.562 11.4771 87.5728 11.6995C87.5836 11.9218 87.7959 12.09 88.0465 12.0747C88.2971 12.0595 88.4916 11.8669 88.4803 11.6442C88.4696 11.4219 88.2578 11.254 88.0066 11.2693Z" fill="white" fill-opacity="0.9"/>
<path d="M96.5997 6.12813C96.5895 5.9236 96.7711 5.74374 97.0018 5.72961C97.2324 5.71578 97.4308 5.87237 97.4405 6.07727C97.4507 6.28181 97.2691 6.46166 97.039 6.47585C96.8078 6.48963 96.61 6.33303 96.5997 6.12813Z" fill="white" fill-opacity="0.9"/>
<path d="M20.6431 23.1155C20.2961 23.1365 20.0271 23.4036 20.0422 23.7116C20.0573 24.0197 20.3516 24.2526 20.6986 24.2315C21.0457 24.2104 21.3146 23.9434 21.2995 23.6353C21.2844 23.3272 20.9902 23.0944 20.6431 23.1155Z" fill="white" fill-opacity="0.9"/>
<path d="M10.514 25.3427C10.4111 25.3489 10.3313 25.4277 10.3356 25.5189C10.3405 25.6101 10.4273 25.6791 10.5302 25.6729C10.6331 25.6664 10.7124 25.5876 10.708 25.4963C10.7037 25.4052 10.6164 25.3365 10.514 25.3427Z" fill="white" fill-opacity="0.9"/>
<path d="M44.9912 27.3069C44.9131 27.3116 44.8527 27.3716 44.856 27.441C44.8597 27.5104 44.9255 27.5627 45.0036 27.558C45.0818 27.5533 45.1427 27.4929 45.1389 27.4239C45.1357 27.3545 45.0694 27.3022 44.9912 27.3069Z" fill="white" fill-opacity="0.9"/>
<path d="M39.2468 30.9671C39.0415 30.9798 38.882 31.1375 38.8912 31.3199C38.9003 31.5022 39.0744 31.6402 39.2797 31.6276C39.485 31.6149 39.644 31.4572 39.6354 31.2748C39.6262 31.0924 39.4522 30.9547 39.2468 30.9671Z" fill="white" fill-opacity="0.9"/>
<path d="M75.4906 38.4574C75.3634 38.4652 75.2648 38.5629 75.2702 38.6762C75.2756 38.789 75.3839 38.8742 75.5111 38.8665C75.6388 38.8587 75.7374 38.7609 75.7315 38.6476C75.7261 38.5349 75.6183 38.4496 75.4906 38.4574Z" fill="white" fill-opacity="0.9"/>
<path d="M65.1228 41.6667C65.1217 41.6396 65.1427 41.6185 65.1724 41.6167C65.2026 41.6149 65.2258 41.6336 65.2268 41.6601C65.2279 41.6866 65.2069 41.7083 65.1772 41.7101C65.1476 41.7119 65.1239 41.6896 65.1228 41.6667Z" fill="white" fill-opacity="0.9"/>
<path d="M92.5799 43.1625C92.5702 42.961 92.7443 42.788 92.9712 42.7743C93.1981 42.7606 93.3889 42.9115 93.3986 43.113C93.4088 43.314 93.2342 43.4869 93.0073 43.5006C92.7804 43.5179 92.5902 43.3641 92.5799 43.1625Z" fill="white" fill-opacity="0.9"/>
<path d="M84.3942 48.6128C84.2691 48.6206 84.1716 48.7166 84.1775 48.8281C84.1829 48.9396 84.2891 49.0237 84.4141 49.0159C84.5397 49.0082 84.6367 48.9121 84.6313 48.8006C84.6259 48.6891 84.5197 48.605 84.3942 48.6128Z" fill="white" fill-opacity="0.9"/>
<path d="M11.4428 45.983C11.3918 45.986 11.3526 46.0254 11.3542 46.0707C11.3564 46.1166 11.4004 46.1512 11.4514 46.1476C11.5024 46.1446 11.5421 46.1053 11.5399 46.0594C11.5373 46.0141 11.4943 45.9795 11.4428 45.983Z" fill="white" fill-opacity="0.9"/>
<path d="M8.12502 64.1919C8.01023 64.199 7.92078 64.2873 7.92617 64.3892C7.93102 64.4918 8.02856 64.5687 8.14335 64.5616C8.25868 64.5544 8.3476 64.4662 8.34275 64.3642C8.3379 64.2622 8.24035 64.1847 8.12502 64.1919Z" fill="white" fill-opacity="0.9"/>
<path d="M13.705 69.0256C13.4991 69.0381 13.3402 69.1961 13.3493 69.3786C13.3579 69.5605 13.532 69.6982 13.7379 69.6863C13.9432 69.6732 14.1027 69.5158 14.0936 69.3333C14.0844 69.1508 13.9103 69.013 13.705 69.0256Z" fill="white" fill-opacity="0.9"/>
<path d="M5.70896 76.5876C5.51818 76.5989 5.36997 76.7456 5.37859 76.9155C5.38722 77.0849 5.54889 77.2131 5.73967 77.2012C5.93099 77.1899 6.07919 77.0432 6.07057 76.8732C6.06195 76.7038 5.90028 76.5756 5.70896 76.5876Z" fill="white" fill-opacity="0.9"/>
<path d="M18.4244 85.1937C18.4055 84.8174 18.7364 84.4895 19.1611 84.4638C19.5847 84.4376 19.9463 84.7238 19.9646 85.1007C19.9835 85.477 19.6526 85.805 19.2285 85.8306C18.8043 85.8527 18.4432 85.57 18.4244 85.1937Z" fill="white" fill-opacity="0.9"/>
<path d="M14.064 92.2335C13.8338 92.2478 13.6555 92.4243 13.6657 92.6289C13.6759 92.8328 13.8705 92.9873 14.1006 92.9736C14.3307 92.9592 14.5091 92.7827 14.4989 92.5782C14.4892 92.3742 14.2941 92.2198 14.064 92.2335Z" fill="white" fill-opacity="0.9"/>
<path d="M2.91737 92.4565C2.91144 92.3408 3.01114 92.2388 3.14479 92.2304C3.27521 92.2227 3.38785 92.3121 3.39378 92.4272C3.39917 92.5429 3.29946 92.6449 3.16581 92.6532C3.03162 92.6616 2.92329 92.5721 2.91737 92.4565Z" fill="white" fill-opacity="0.9"/>
<path d="M48.3827 82.6343C48.3773 82.5318 48.4662 82.4405 48.5853 82.4328C48.7007 82.4262 48.8014 82.5025 48.8068 82.6087C48.8117 82.7142 48.7228 82.8019 48.6042 82.8096C48.4851 82.8168 48.3876 82.7363 48.3827 82.6343Z" fill="white" fill-opacity="0.9"/>
<path d="M41.6504 83.2319C41.548 83.2378 41.4677 83.3166 41.4726 83.4078C41.4769 83.499 41.5637 83.5682 41.6666 83.5616C41.7695 83.5551 41.8493 83.4764 41.8444 83.3851C41.8401 83.2939 41.7528 83.2253 41.6504 83.2319Z" fill="white" fill-opacity="0.9"/>
<path d="M52.0215 91.9143C52.0199 91.8811 52.0485 91.8528 52.0862 91.8504C52.1234 91.848 52.1542 91.8727 52.1563 91.9064C52.1579 91.9396 52.1294 91.9679 52.0922 91.9703C52.0544 91.9727 52.0231 91.948 52.0215 91.9143Z" fill="white" fill-opacity="0.9"/>
<path d="M69.1463 76.3181C69.1339 76.0766 69.3441 75.8691 69.6157 75.8524C69.8874 75.8357 70.1164 76.017 70.1283 76.2585C70.1401 76.4994 69.9305 76.7075 69.6588 76.7236C69.391 76.7403 69.1582 76.559 69.1463 76.3181Z" fill="white" fill-opacity="0.9"/>
<path d="M110.866 98.9635C110.857 98.778 111.02 98.6158 111.228 98.6033C111.437 98.5908 111.616 98.7321 111.625 98.917C111.634 99.1054 111.47 99.264 111.262 99.2772C111.054 99.2897 110.875 99.1513 110.866 98.9635Z" fill="white" fill-opacity="0.9"/>
<path d="M61.4877 111.238C61.4828 111.139 61.5685 111.055 61.6801 111.047C61.7916 111.041 61.8849 111.115 61.8897 111.214C61.8946 111.313 61.8094 111.397 61.6979 111.404C61.5895 111.411 61.4931 111.337 61.4877 111.238Z" fill="white" fill-opacity="0.9"/>
<path d="M84.6965 107.201C84.6857 106.976 84.8846 106.778 85.1379 106.763C85.3907 106.748 85.6084 106.92 85.6192 107.145C85.6305 107.369 85.4316 107.567 85.1783 107.582C84.9256 107.597 84.7084 107.428 84.6965 107.201Z" fill="white" fill-opacity="0.9"/>
<path d="M102.156 125.016C102.148 124.858 102.287 124.72 102.465 124.709C102.644 124.698 102.796 124.818 102.803 124.977C102.811 125.136 102.672 125.273 102.494 125.284C102.315 125.295 102.164 125.175 102.156 125.016Z" fill="white" fill-opacity="0.9"/>
<path d="M90.7039 122.996C90.6959 122.827 90.8414 122.683 91.0311 122.671C91.2213 122.659 91.3803 122.786 91.3884 122.954C91.397 123.122 91.2509 123.267 91.0612 123.278C90.8715 123.287 90.712 123.161 90.7039 122.996Z" fill="white" fill-opacity="0.9"/>
<path d="M74.8783 125.794C74.8735 125.698 74.9586 125.613 75.0669 125.607C75.1747 125.601 75.2679 125.674 75.2728 125.77C75.2771 125.866 75.192 125.95 75.0842 125.957C74.9764 125.963 74.8832 125.89 74.8783 125.794Z" fill="white" fill-opacity="0.9"/>
<path d="M18.6895 120.355C18.4594 120.369 18.281 120.546 18.2907 120.75C18.301 120.955 18.4955 121.109 18.7256 121.095C18.9558 121.081 19.1341 120.904 19.1244 120.699C19.1142 120.496 18.9197 120.341 18.6895 120.355Z" fill="white" fill-opacity="0.9"/>
<path d="M7.46101 122.471C7.44808 122.213 7.67227 121.988 7.96598 121.97C8.2597 121.952 8.50491 122.146 8.51731 122.406C8.53024 122.664 8.30658 122.889 8.01233 122.907C7.71808 122.925 7.47395 122.731 7.46101 122.471Z" fill="white" fill-opacity="0.9"/>
<path d="M32.6757 117.715C32.6655 117.517 32.8363 117.348 33.0594 117.334C33.2831 117.321 33.4695 117.472 33.4792 117.666C33.4889 117.865 33.3181 118.034 33.095 118.047C32.8719 118.061 32.6854 117.913 32.6757 117.715Z" fill="white" fill-opacity="0.9"/>
<path d="M110.198 83.6117C110.191 83.4566 110.326 83.3231 110.501 83.3123C110.675 83.3016 110.823 83.4185 110.831 83.5741C110.839 83.7292 110.703 83.8627 110.528 83.8735C110.354 83.8842 110.206 83.7673 110.198 83.6117Z" fill="white" fill-opacity="0.9"/>
<path d="M105.966 117.861C105.957 117.686 106.11 117.534 106.307 117.522C106.505 117.51 106.672 117.643 106.68 117.817C106.689 117.992 106.536 118.144 106.339 118.156C106.141 118.168 105.974 118.036 105.966 117.861Z" fill="white" fill-opacity="0.9"/>
<path d="M48.6042 126.858C48.5999 126.776 48.6748 126.701 48.7675 126.696C48.8607 126.69 48.9421 126.755 48.9464 126.837C48.9502 126.92 48.8758 126.994 48.7826 127C48.6856 127.006 48.608 126.941 48.6042 126.858Z" fill="white" fill-opacity="0.9"/>
<path d="M9.98803 105.084C9.98372 105.002 10.0581 104.928 10.1513 104.922C10.244 104.916 10.3259 104.981 10.3297 105.063C10.334 105.146 10.2591 105.22 10.1664 105.226C10.0732 105.231 9.9918 105.167 9.98803 105.084Z" fill="white" fill-opacity="0.9"/>
<path d="M1.99254 54.6727C1.98823 54.5832 2.06637 54.5057 2.16661 54.4998C2.26739 54.4938 2.35254 54.5612 2.35739 54.6506C2.36171 54.7395 2.28356 54.817 2.18278 54.8236C2.08254 54.8295 1.99685 54.7621 1.99254 54.6727Z" fill="white" fill-opacity="0.9"/>
<path d="M29.6868 46.339C29.6766 46.141 29.8474 45.9722 30.0706 45.9585C30.2942 45.9448 30.4807 46.0957 30.4904 46.2907C30.5001 46.4886 30.3298 46.658 30.1061 46.6717C29.883 46.6848 29.6965 46.5375 29.6868 46.339Z" fill="white" fill-opacity="0.9"/>
<path d="M50.1159 53.8318C50.1094 53.7036 50.2237 53.5903 50.3686 53.5819C50.5136 53.5724 50.6375 53.6714 50.6445 53.8002C50.6505 53.929 50.5368 54.0417 50.3918 54.0506C50.2468 54.059 50.1229 53.9642 50.1159 53.8318Z" fill="white" fill-opacity="0.9"/>
<path d="M70.7114 65.9537C70.4031 65.9727 70.1644 66.2095 70.1779 66.4832C70.1914 66.7563 70.4522 66.9627 70.7599 66.9442C71.0687 66.9257 71.3075 66.6883 71.2935 66.4152C71.28 66.1415 71.0197 65.9352 70.7114 65.9537Z" fill="white" fill-opacity="0.9"/>
<path d="M55.656 0.638584C55.6495 0.516456 55.7563 0.410788 55.8942 0.40238C56.0322 0.394031 56.1486 0.486343 56.1545 0.608411C56.1604 0.730478 56.0537 0.836564 55.9163 0.844555C55.7783 0.852904 55.6619 0.760651 55.656 0.638584Z" fill="white" fill-opacity="0.9"/>
<path d="M99.9729 21.4043C99.6646 21.4233 99.4259 21.6601 99.4393 21.9337C99.4528 22.2069 99.7136 22.4136 100.022 22.3951C100.33 22.3762 100.569 22.1393 100.555 21.8658C100.542 21.5922 100.281 21.3859 99.9729 21.4043Z" fill="white" fill-opacity="0.9"/>
<path d="M88.8457 23.6066C88.7207 23.6142 88.6231 23.7105 88.629 23.8216C88.6344 23.9329 88.7406 24.0168 88.8656 24.0091C88.9912 24.0015 89.0882 23.9053 89.0828 23.794C89.0769 23.6829 88.9707 23.599 88.8457 23.6066Z" fill="white" fill-opacity="0.9"/>
<path d="M20.9153 50.7495C20.9061 50.5581 21.0732 50.3953 21.2856 50.3828C21.4979 50.3697 21.68 50.514 21.6892 50.7024C21.6989 50.8944 21.5318 51.0566 21.3195 51.0692C21.1077 51.0823 20.925 50.938 20.9153 50.7495Z" fill="white" fill-opacity="0.9"/>
<path d="M50.4683 42.2704C50.4619 42.1416 50.5756 42.0288 50.7211 42.0199C50.8661 42.0116 50.9906 42.11 50.9965 42.2382C51.003 42.367 50.8892 42.4803 50.7443 42.4886C50.5993 42.5011 50.4748 42.4027 50.4683 42.2704Z" fill="white" fill-opacity="0.9"/>
<path d="M46.0373 101.953C46.0286 101.782 46.1784 101.633 46.3719 101.621C46.5654 101.61 46.7282 101.739 46.7368 101.91C46.7454 102.082 46.5961 102.231 46.4026 102.242C46.2092 102.254 46.0459 102.124 46.0373 101.953Z" fill="white" fill-opacity="0.9"/>
<path d="M32.4149 95.6669C32.3082 95.6729 32.2252 95.7552 32.23 95.85C32.2343 95.9448 32.3254 96.0164 32.4321 96.0098C32.5388 96.0032 32.6218 95.9215 32.617 95.8267C32.6121 95.7319 32.5216 95.6604 32.4149 95.6669Z" fill="white" fill-opacity="0.9"/>
<path d="M62.3467 17.4292C62.156 17.4408 62.0078 17.5876 62.0158 17.7569C62.0245 17.9266 62.1861 18.0548 62.3769 18.0432C62.5682 18.0315 62.7164 17.8848 62.7078 17.7151C62.6997 17.5455 62.5381 17.4176 62.3467 17.4292Z" fill="white" fill-opacity="0.9"/>
<path d="M2.28199 19.5538C2.05186 19.5675 1.87348 19.7445 1.88372 19.9486C1.89396 20.1528 2.08852 20.3072 2.31864 20.2931C2.54876 20.2792 2.72714 20.1023 2.71744 19.8981C2.7072 19.694 2.51211 19.5396 2.28199 19.5538Z" fill="white" fill-opacity="0.9"/>
<path d="M62.0665 32.3308C62.0584 32.1662 62.2007 32.0249 62.3866 32.0135C62.5726 32.0022 62.7283 32.1251 62.7364 32.2902C62.7445 32.4554 62.6022 32.5967 62.4163 32.6081C62.2304 32.6224 62.0746 32.4966 62.0665 32.3308Z" fill="white" fill-opacity="0.9"/>
<path d="M100.696 63.7768C100.693 63.7208 100.743 63.6749 100.802 63.6713C100.865 63.6671 100.916 63.7107 100.918 63.7637C100.921 63.8198 100.871 63.8657 100.812 63.8693C100.749 63.8764 100.698 63.8335 100.696 63.7768Z" fill="white" fill-opacity="0.9"/>
<path d="M87.417 77.454C87.1087 77.4725 86.87 77.7099 86.8834 77.983C86.8969 78.2567 87.1578 78.4636 87.466 78.4445C87.7743 78.426 88.013 78.1893 87.9996 77.9156C87.9861 77.6419 87.7253 77.4355 87.417 77.454Z" fill="white" fill-opacity="0.9"/>
<path d="M80.1755 75.234C80.1749 75.2206 80.1848 75.2071 80.203 75.2059C80.2212 75.2047 80.2321 75.2141 80.2332 75.2305C80.2337 75.2434 80.2238 75.2575 80.2056 75.2581C80.1874 75.2593 80.176 75.2469 80.1755 75.234Z" fill="white" fill-opacity="0.9"/>
<path d="M104.043 75.5214C103.901 75.5303 103.791 75.6395 103.798 75.7647C103.804 75.8905 103.924 75.9859 104.065 75.977C104.207 75.9686 104.317 75.8595 104.311 75.7337C104.305 75.6079 104.185 75.513 104.043 75.5214Z" fill="white" fill-opacity="0.9"/>
<path d="M90.6538 61.8995C90.6392 61.6019 90.899 61.3449 91.2337 61.3246C91.5683 61.3044 91.8524 61.5286 91.8669 61.8261C91.8815 62.1225 91.6217 62.3801 91.287 62.4004C90.9524 62.4213 90.6689 62.1965 90.6538 61.8995Z" fill="white" fill-opacity="0.9"/>
<path d="M116.883 53.6815C116.868 53.3511 117.155 53.0625 117.531 53.0398C117.907 53.0166 118.221 53.2658 118.238 53.5998C118.254 53.9295 117.966 54.2188 117.59 54.2414C117.215 54.2641 116.9 54.0118 116.883 53.6815Z" fill="white" fill-opacity="0.9"/>
<path d="M108.722 48.0309C108.311 48.0559 107.993 48.372 108.011 48.7363C108.029 49.1007 108.376 49.3768 108.788 49.3517C109.199 49.3267 109.517 49.0106 109.499 48.6463C109.481 48.2813 109.133 48.0058 108.722 48.0309Z" fill="white" fill-opacity="0.9"/>
<path d="M125.227 38.2372C125.223 38.1418 125.304 38.0607 125.412 38.0541C125.52 38.0476 125.609 38.1185 125.614 38.2139C125.619 38.31 125.537 38.3905 125.429 38.397C125.321 38.4036 125.232 38.3296 125.227 38.2372Z" fill="white" fill-opacity="0.9"/>
<path d="M127.027 50.4668C127.018 50.2819 127.178 50.1233 127.386 50.1102C127.595 50.0976 127.77 50.236 127.779 50.4209C127.788 50.6057 127.628 50.7649 127.42 50.7775C127.212 50.79 127.037 50.6516 127.027 50.4668Z" fill="white" fill-opacity="0.9"/>
<path d="M122 29.2838C121.858 29.2921 121.748 29.4011 121.754 29.5272C121.761 29.6529 121.88 29.7477 122.022 29.7393C122.164 29.7306 122.274 29.6216 122.268 29.4959C122.262 29.3702 122.142 29.275 122 29.2838Z" fill="white" fill-opacity="0.9"/>
<path d="M125.549 82.8962C125.543 82.7769 125.646 82.675 125.78 82.6666C125.914 82.6589 126.026 82.7477 126.032 82.8664C126.038 82.9856 125.935 83.0876 125.801 83.096C125.667 83.1043 125.555 83.0149 125.549 82.8962Z" fill="white" fill-opacity="0.9"/>
<path d="M91.4439 89.7337C91.1167 89.7539 90.864 90.005 90.8785 90.2948C90.8925 90.5846 91.169 90.8034 91.4961 90.7838C91.8227 90.7641 92.0755 90.5124 92.0615 90.2226C92.0469 89.9328 91.7705 89.714 91.4439 89.7337Z" fill="white" fill-opacity="0.9"/>
<path d="M70.0216 97.2126C69.6594 97.2347 69.3797 97.5126 69.3953 97.8334C69.411 98.1548 69.7171 98.3969 70.0787 98.3749C70.4408 98.3528 70.7206 98.0749 70.7049 97.7541C70.6888 97.4333 70.3826 97.1912 70.0216 97.2126Z" fill="white" fill-opacity="0.9"/>
<path d="M58.7656 125.271C58.7645 125.252 58.7823 125.234 58.8044 125.233C58.827 125.232 58.8459 125.247 58.847 125.266C58.8475 125.286 58.8303 125.303 58.8082 125.305C58.7861 125.31 58.7667 125.294 58.7656 125.271Z" fill="white" fill-opacity="0.9"/>
<path d="M39.9421 79.8613C39.8397 79.8678 39.7599 79.9465 39.7642 80.0378C39.7691 80.129 39.8558 80.1976 39.9588 80.191C40.0611 80.1851 40.1409 80.1064 40.1361 80.0151C40.1318 79.9239 40.045 79.8547 39.9421 79.8613Z" fill="white" fill-opacity="0.9"/>
<path d="M121.291 53.6792C121.284 53.5504 121.398 53.4377 121.543 53.4288C121.688 53.4198 121.812 53.5182 121.819 53.647C121.825 53.7759 121.712 53.8892 121.567 53.8975C121.422 53.9064 121.297 53.808 121.291 53.6792Z" fill="white" fill-opacity="0.9"/>
<path d="M123.161 89.2435C123.156 89.1278 123.255 89.0288 123.385 89.0211C123.515 89.0127 123.625 89.0992 123.63 89.2149C123.635 89.33 123.536 89.429 123.406 89.4367C123.279 89.4445 123.167 89.3556 123.161 89.2435Z" fill="white" fill-opacity="0.9"/>
<path d="M12.1287 56.2757C12.0759 56.2626 12.0274 56.2525 11.981 56.2286C11.939 56.2077 11.9039 56.1803 11.8657 56.1594C11.8123 56.1332 11.7525 56.1266 11.6884 56.1177C11.5531 56.0992 11.4178 56.0807 11.2826 56.0628C11.1737 56.0461 11.0535 56.03 10.9716 55.9656C10.8902 55.9012 10.8574 55.7706 10.9398 55.7026C11.0255 55.6275 11.1656 55.6621 11.2686 55.7056C11.4669 55.7867 11.6539 55.8839 11.849 55.9716C12.1615 56.1117 12.4887 56.231 12.8153 56.3473C13.1688 56.4749 13.5256 56.5983 13.8791 56.7259C14.5969 56.9806 15.3186 57.2382 16.037 57.4928C15.463 57.2889 14.8546 57.1404 14.2774 56.937C13.5751 56.6884 12.8654 56.4498 12.1287 56.2757Z" fill="url(#paint0_linear_235_512)"/>
<path d="M43.0899 11.8252C42.6356 11.621 42.1624 11.4114 41.651 11.4092C41.1956 11.407 40.6809 11.5607 40.3144 11.3216C40.052 11.152 39.8068 10.7894 39.5233 10.9424C39.5082 10.6387 39.0738 10.5391 38.7424 10.4766C38.2342 10.3814 37.747 10.1925 37.3272 9.92653C37.2954 9.7329 37.5217 9.56032 37.7411 9.54363C37.9604 9.52729 38.17 9.62025 38.3614 9.71477C38.7823 9.9211 39.1891 10.1515 39.5783 10.3992C39.7017 10.4777 39.8251 10.5598 39.9587 10.6245C40.1463 10.7156 40.3505 10.7731 40.5548 10.8301C44.3154 11.9364 47.7397 13.6326 51.1959 15.3071C50.1083 14.6713 48.8612 14.4388 47.6972 13.9135C46.1623 13.2152 44.628 12.5202 43.0899 11.8252Z" fill="url(#paint1_linear_235_512)"/>
<path d="M57.7998 100.755C56.9758 100.541 56.1443 100.326 55.2858 100.242C54.8358 100.2 54.3836 100.191 53.9341 100.222C53.4804 100.253 52.8897 100.242 52.7625 99.856C52.6704 99.5734 52.9576 99.2675 53.2826 99.2114C53.6124 99.1554 53.9438 99.2907 54.1955 99.4744C54.2995 99.5507 54.4014 99.6372 54.5264 99.6825C54.7619 99.7678 55.0378 99.6915 55.2868 99.7356C55.5951 99.7898 55.8193 100.018 56.0985 100.147C56.4347 100.305 56.8379 100.317 57.2178 100.377C57.6166 100.439 57.9992 100.558 58.3819 100.674C60.8146 101.424 63.2478 102.17 65.6805 102.92C63.035 102.246 60.4427 101.443 57.7998 100.755Z" fill="url(#paint2_linear_235_512)"/>
<path d="M-10.3488 8.16778C-10.9653 8.00021 -11.5813 7.76943 -12.2291 7.79865C-12.3929 7.80521 -12.5708 7.82608 -12.7158 7.76228C-12.8834 7.68595 -12.9631 7.5154 -13.0709 7.37944C-13.3975 6.95903 -14.013 6.81412 -14.5874 6.73958C-15.1622 6.66862 -15.7728 6.62986 -16.2389 6.32991C-16.7051 6.03353 -16.9212 5.36148 -16.4955 4.99772C-16.2125 4.75501 -15.7533 4.75382 -15.3998 4.88501C-15.0461 5.01918 -14.7653 5.26368 -14.478 5.4879C-13.6664 6.12417 -12.7379 6.64059 -11.7382 7.00733C-10.5563 7.44205 5.37379 14.0553 8.60249 15.4954C1.57383 12.5275 -7.18262 9.01933 -10.3488 8.16778Z" fill="url(#paint3_linear_235_512)"/>
<path d="M74.105 56.2757C74.0522 56.2626 74.0037 56.2525 73.9574 56.2286C73.9153 56.2077 73.8803 56.1803 73.842 56.1594C73.7887 56.1332 73.7289 56.1266 73.6647 56.1177C73.5295 56.0992 73.3942 56.0807 73.2589 56.0628C73.15 56.0461 73.0299 56.03 72.948 55.9656C72.8666 55.9012 72.8337 55.7706 72.9162 55.7026C73.0018 55.6275 73.142 55.6621 73.2449 55.7056C73.4432 55.7867 73.6302 55.8839 73.8253 55.9716C74.1379 56.1117 74.465 56.231 74.7916 56.3473C75.1452 56.4749 75.5019 56.5983 75.8555 56.7259C76.5733 56.9806 77.2949 57.2382 78.0133 57.4928C77.4394 57.2889 76.8309 57.1404 76.2537 56.937C75.5515 56.6884 74.8417 56.4498 74.105 56.2757Z" fill="url(#paint4_linear_235_512)"/>
<path d="M51.4265 47.5292C51.3926 47.5215 51.3624 47.5131 51.3317 47.4982C51.3053 47.4869 51.2853 47.4678 51.2589 47.4529C51.2244 47.4356 51.1867 47.4308 51.1457 47.4267C51.059 47.4159 50.9728 47.4046 50.8903 47.3927C50.8186 47.3837 50.7432 47.3718 50.693 47.3319C50.6386 47.2919 50.6198 47.2072 50.6736 47.1643C50.7275 47.1178 50.8175 47.1386 50.8827 47.1679C51.0083 47.2203 51.1307 47.2824 51.253 47.3378C51.4513 47.4285 51.6604 47.5018 51.869 47.5752C52.0969 47.6539 52.3211 47.7362 52.5491 47.8155C53.0088 47.9795 53.4647 48.1405 53.9244 48.3051C53.5596 48.1745 53.1705 48.079 52.8019 47.949C52.3502 47.791 51.8948 47.6396 51.4265 47.5292Z" fill="url(#paint5_linear_235_512)"/>
<path d="M105.066 11.8252C104.612 11.621 104.139 11.4114 103.627 11.4092C103.172 11.407 102.657 11.5607 102.291 11.3216C102.028 11.152 101.783 10.7894 101.5 10.9424C101.485 10.6387 101.05 10.5391 100.719 10.4766C100.211 10.3814 99.7234 10.1925 99.3035 9.92653C99.2717 9.7329 99.4981 9.56032 99.7174 9.54363C99.9368 9.52729 100.146 9.62025 100.338 9.71477C100.759 9.9211 101.166 10.1515 101.555 10.3992C101.678 10.4777 101.801 10.5598 101.935 10.6245C102.123 10.7156 102.327 10.7731 102.531 10.8301C106.292 11.9364 109.716 13.6326 113.172 15.3071C112.085 14.6713 110.838 14.4388 109.674 13.9135C108.139 13.2152 106.604 12.5202 105.066 11.8252Z" fill="url(#paint6_linear_235_512)"/>
<path d="M-5.20266 74.3354C-6.02667 74.1207 -6.85824 73.906 -7.71674 73.8225C-8.16675 73.7802 -8.6189 73.7712 -9.06836 73.8017C-9.52214 73.8327 -10.1128 73.8219 -10.24 73.4361C-10.3321 73.1535 -10.0449 72.8475 -9.71992 72.7915C-9.3901 72.7354 -9.05866 72.8708 -8.80699 73.0545C-8.70297 73.1308 -8.60112 73.2173 -8.47609 73.2626C-8.24058 73.3479 -7.96465 73.2715 -7.71566 73.3157C-7.4074 73.3699 -7.18321 73.5983 -6.90404 73.7271C-6.56775 73.8851 -6.16464 73.8971 -5.78469 73.9567C-5.38589 74.0187 -5.00326 74.138 -4.62062 74.2537C-2.18791 75.0039 0.245333 75.7499 2.67804 76.5C0.0324574 75.8262 -2.55977 75.0229 -5.20266 74.3354Z" fill="url(#paint7_linear_235_512)"/>
<path d="M96.7399 40.1748C96.6871 40.1616 96.6386 40.1515 96.5923 40.1277C96.5502 40.1068 96.5152 40.0794 96.4769 40.0585C96.4236 40.0322 96.3638 40.0257 96.2996 40.0167C96.1643 39.9983 96.0291 39.9798 95.8938 39.9619C95.7849 39.9452 95.6648 39.9291 95.5828 39.8647C95.5015 39.8003 95.4686 39.6697 95.551 39.6017C95.6367 39.5266 95.7768 39.5611 95.8798 39.6047C96.0781 39.6858 96.2651 39.783 96.4602 39.8706C96.7728 40.0108 97.0999 40.13 97.4265 40.2463C97.78 40.3739 98.1368 40.4974 98.4903 40.625C99.2082 40.8796 99.9298 41.1372 100.648 41.3919C100.074 41.1879 99.4658 41.0394 98.8886 40.8361C98.1864 40.5874 97.4766 40.3489 96.7399 40.1748Z" fill="url(#paint8_linear_235_512)"/>
<path d="M70.6419 98.7852C70.6079 98.7775 70.5777 98.7691 70.547 98.7542C70.5206 98.7429 70.5007 98.7238 70.4742 98.7089C70.4398 98.6916 70.402 98.6868 70.3611 98.6826C70.2743 98.6719 70.1881 98.6606 70.1056 98.6487C70.0339 98.6397 69.9585 98.6278 69.9084 98.5878C69.8539 98.5479 69.8351 98.4632 69.889 98.4203C69.9429 98.3738 70.0329 98.3946 70.0981 98.4238C70.2236 98.4763 70.346 98.5383 70.4683 98.5938C70.6666 98.6844 70.8758 98.7578 71.0843 98.8311C71.3123 98.9099 71.5365 98.9921 71.7644 99.0715C72.2241 99.2354 72.6801 99.3965 73.1398 99.561C72.7749 99.4304 72.3858 99.335 72.0172 99.205C71.5656 99.047 71.1102 98.8955 70.6419 98.7852Z" fill="url(#paint9_linear_235_512)"/>
<path d="M99.5992 128.552C109.326 128.552 117.212 120.698 117.212 111.01C117.212 101.322 109.326 93.4684 99.5992 93.4684C89.8721 93.4684 81.9868 101.322 81.9868 111.01C81.9868 120.698 89.8721 128.552 99.5992 128.552Z" fill="url(#paint10_linear_235_512)"/>
<path opacity="0.58" d="M111.027 107.524C107.534 108.107 104.11 106.448 100.645 105.732C98.0513 105.198 95.353 105.184 92.7592 105.705C90.3746 106.184 88.0388 107.128 86.226 108.746C84.4131 110.357 83.1651 112.691 83.186 115.114C83.2069 117.538 84.6293 119.975 86.8744 120.906C85.452 118.413 86.2957 115.177 87.9203 112.802C89.7053 110.191 92.4594 108.163 95.59 107.663C100.331 106.906 104.822 109.614 109.305 111.316C110.86 111.906 112.498 112.392 114.158 112.323C114.736 112.302 115.35 112.191 115.789 111.816C116.549 111.163 116.521 110.003 116.431 109.01C116.361 108.267 115.81 105.83 115.531 105.33C114.506 103.482 114.214 105.343 113.67 106.093C113.021 107.01 112.115 107.343 111.027 107.524Z" fill="black"/>
<path opacity="0.58" d="M110.065 116.448C108.301 116.225 106.544 115.948 104.801 115.614C102.339 115.149 99.8432 114.58 97.361 114.864C93.7702 115.274 90.4792 117.58 89.015 120.718C88.7082 121.371 88.4781 122.114 88.6873 122.802C88.8407 123.288 89.1963 123.691 89.5798 124.052C90.8697 125.26 92.5152 126.114 94.2862 126.489C93.9097 125.878 93.5332 125.267 93.1566 124.656C92.9475 124.323 92.7383 123.975 92.6755 123.593C92.557 122.913 92.8987 122.239 93.324 121.677C94.6348 119.955 96.7823 118.899 98.9996 118.58C101.217 118.26 103.497 118.621 105.616 119.302C107.206 119.816 108.768 120.51 110.448 120.559C112.122 120.607 113.99 119.753 114.367 118.205C114.974 115.705 111.508 116.628 110.065 116.448Z" fill="black"/>
<path opacity="0.58" d="M101.168 122.906C100.443 123.121 99.7177 123.378 99.1251 123.843C98.5324 124.309 98.0862 125.017 98.1141 125.767C98.128 126.052 98.2047 126.343 98.379 126.566C98.7555 127.059 99.4667 127.149 100.08 127.093C100.15 127.086 100.22 127.079 100.276 127.045C100.408 126.975 100.45 126.809 100.499 126.67C100.847 125.6 102.074 125.038 103.204 124.996C104.619 124.954 106.125 125.51 107.394 124.885C109.214 123.989 107.966 122.711 106.641 122.448C104.822 122.093 102.925 122.392 101.168 122.906Z" fill="black"/>
<path opacity="0.58" d="M108.838 99.4337C108.426 99.8157 107.834 99.9268 107.269 99.9893C103.567 100.399 99.8572 99.5448 96.1339 99.3226C92.4176 99.1004 88.3387 99.6559 85.717 102.288C87.5368 99.1698 90.6326 96.8087 94.1328 95.8851C93.5959 96.0518 93.1985 96.5795 93.1915 97.142C95.9805 97.524 98.7904 97.774 101.607 97.899C103.051 97.9615 104.689 97.9198 105.679 96.8712C106.077 96.4545 106.439 95.8504 107.011 95.8851C107.227 95.892 107.415 95.9893 107.583 96.1004C108.412 96.649 109.828 98.5101 108.838 99.4337Z" fill="black"/>
<path opacity="0.58" d="M102.681 95.4337C102.751 95.4754 102.834 95.5379 102.814 95.6142C102.807 95.649 102.779 95.6767 102.744 95.7045C102.437 95.9615 101.991 95.9545 101.6 95.892C101.217 95.8365 99.3831 95.5309 100.324 95.0309C101.098 94.6281 102.012 95.0448 102.681 95.4337Z" fill="black"/>
<path opacity="0.58" d="M113.488 108.503C112.847 108.781 112.143 108.878 111.445 108.968C111.201 108.996 110.964 109.031 110.72 109.066C110.483 109.093 110.246 109.128 110.009 109.128C109.27 109.128 108.573 108.83 107.862 108.635C107.032 108.399 106.167 108.295 105.31 108.191C107.527 109.177 109.849 109.989 112.254 110.323C112.394 110.343 112.547 110.357 112.673 110.295C112.777 110.239 112.854 110.142 112.951 110.08C113.077 109.996 113.23 109.968 113.377 109.968C113.865 109.962 114.402 110.177 114.813 109.906C115.301 109.587 115.476 108.413 115.12 107.955C114.646 107.35 113.969 108.288 113.488 108.503Z" fill="black"/>
<path opacity="0.58" d="M90.026 121.08C90.1097 120.67 90.2352 120.239 90.5559 119.961C90.8766 119.677 91.3438 119.6 91.7761 119.628C91.8598 119.635 91.9504 119.642 92.0271 119.593C92.0899 119.552 92.1247 119.475 92.1596 119.406C92.6546 118.399 93.7075 117.809 94.7115 117.288C95.7016 116.774 96.7126 116.26 97.8212 116.107C99.4737 115.878 101.112 116.489 102.674 117.086C101.83 116.781 100.91 116.809 100.018 116.843C99.2785 116.878 98.5254 116.92 97.8421 117.205C97.2774 117.441 96.7893 117.83 96.1966 117.989C95.8341 118.086 95.4366 118.1 95.1299 118.323C94.8161 118.545 94.6836 118.934 94.4814 119.26C94.0143 120.003 93.1776 120.42 92.4315 120.885C91.6854 121.35 90.9324 122.01 90.8627 122.885C90.8487 123.045 90.8557 123.211 90.779 123.35C90.6396 123.586 90.27 123.607 90.0469 123.441C89.4612 123.003 89.9075 121.656 90.026 121.08Z" fill="black"/>
<path opacity="0.58" d="M84.3434 113.42C84.5526 113.149 84.8176 112.92 84.9989 112.628C85.1523 112.385 85.2359 112.114 85.3614 111.857C85.7519 111.052 86.4631 110.461 87.1603 109.899C88.2062 109.052 89.28 108.191 90.5629 107.774C88.3945 109.239 86.6792 111.364 85.7031 113.781C85.1313 115.198 84.8036 116.698 84.4899 118.191C84.5178 118.045 84.0157 117.302 83.9739 117.059C83.9042 116.663 84.0436 116.323 84.0227 115.941C83.96 114.996 83.688 114.274 84.3434 113.42Z" fill="black"/>
<path opacity="0.58" d="M105.86 97.9059C105.554 97.9198 105.24 97.8642 104.954 97.9684C104.808 98.017 104.682 98.1073 104.55 98.1836C104.089 98.4336 103.56 98.517 103.037 98.5864C101.252 98.8086 99.4388 98.8295 97.6469 98.6628C100.603 99.3225 103.692 99.3642 106.662 98.8017C106.927 98.7531 107.192 98.6906 107.415 98.5448C107.924 98.2045 107.841 97.3781 107.192 97.267C106.62 97.1559 106.467 97.8781 105.86 97.9059Z" fill="black"/>
<path opacity="0.58" d="M86.8535 102.621C86.1702 103.024 85.4451 103.531 85.2708 104.302C85.2359 104.448 85.2359 104.621 85.3335 104.732C85.5218 104.934 85.8565 104.767 86.0726 104.6C85.9959 104.767 86.1702 104.934 86.3306 105.017C87.1882 105.448 88.3178 105.246 88.9662 104.538C89.1266 104.364 89.266 104.128 89.2242 103.892C89.1754 103.656 88.8616 103.489 88.6873 103.649C88.7779 103.614 88.8965 103.67 88.9313 103.76C88.5339 104.1 87.9622 104.232 87.4532 104.1C87.3695 104.08 87.2858 104.052 87.2231 103.996C87.0697 103.857 87.0766 103.607 87.1603 103.42C87.3346 103.01 87.753 102.76 88.1574 102.559C89.4543 101.92 90.8697 101.517 92.313 101.371C92.1944 101.385 91.8807 101.142 91.7273 101.107C91.4972 101.059 91.2392 101.066 91.0022 101.093C90.6466 101.135 90.2979 101.246 89.9493 101.33C88.8198 101.58 87.8366 102.038 86.8535 102.621Z" fill="black"/>
<path opacity="0.58" d="M95.6667 113.725C96.0851 113.684 96.4965 113.753 96.9148 113.802C97.9607 113.913 99.0205 113.857 100.073 113.802C100.617 113.774 101.154 113.746 101.698 113.718C102.43 113.677 103.169 113.642 103.894 113.51C104.062 113.482 104.236 113.441 104.375 113.343C104.766 113.073 104.738 112.489 104.571 112.052C104.006 110.573 102.207 109.684 100.68 110.142C100.45 109.6 99.7805 109.385 99.1948 109.413C98.4697 109.448 97.7585 109.788 97.2774 110.33C96.9148 110.732 96.6847 111.35 96.9776 111.802C97.2355 112.205 97.7794 112.302 98.2605 112.33C98.7834 112.364 99.2994 112.371 99.8223 112.343C100.08 112.33 100.394 112.267 100.457 112.017C100.032 112.211 99.5016 112.17 99.1181 111.906C98.9856 111.816 98.8532 111.684 98.8532 111.517C98.8462 111.295 99.0763 111.135 99.2924 111.107C99.5086 111.08 99.7317 111.142 99.9478 111.163C100.352 111.205 100.757 111.1 101.161 111.135C101.565 111.17 102.005 111.406 102.06 111.802C102.109 112.163 101.809 112.496 101.468 112.628C101.126 112.76 100.75 112.746 100.38 112.774C99.1321 112.857 97.9676 113.371 96.7475 113.628C95.9596 113.795 95.1508 113.85 94.3768 114.059C93.6029 114.274 92.8359 114.67 92.4106 115.35C92.7034 114.892 93.6377 114.517 94.1188 114.323C94.6069 114.128 95.1298 113.781 95.6667 113.725Z" fill="black"/>
<path opacity="0.58" d="M111.571 104.267C111.696 104.538 111.564 104.871 111.341 105.066C111.118 105.26 110.818 105.35 110.532 105.441C110.002 105.593 109.465 105.746 108.921 105.829C108.691 105.864 108.454 105.885 108.224 105.843C108.008 105.802 107.806 105.691 107.597 105.628C107.053 105.468 106.418 105.586 105.951 105.267C105.519 104.968 105.386 104.399 105.352 103.878C105.324 103.538 105.352 103.142 105.63 102.941C105.7 102.892 105.777 102.857 105.833 102.802C105.902 102.725 105.923 102.621 105.958 102.524C106.174 101.927 106.872 101.635 107.506 101.628C107.604 101.628 107.694 101.628 107.792 101.607C107.91 101.579 108.015 101.503 108.113 101.427C108.636 101.052 109.291 100.711 109.905 100.92C110.169 101.01 110.386 101.191 110.574 101.399C110.839 101.691 111.062 102.045 111.09 102.441C111.125 102.836 110.929 103.26 110.567 103.42C110.434 103.475 110.281 103.51 110.197 103.628C110.156 103.684 110.142 103.753 110.121 103.816C109.974 104.191 109.528 104.357 109.131 104.413C108.803 104.454 108.454 104.454 108.168 104.295C107.876 104.135 107.673 103.795 107.764 103.475C107.834 103.232 108.057 103.059 108.28 102.934C108.475 102.829 108.733 102.753 108.894 102.899C108.838 102.725 108.594 102.67 108.447 102.774C108.301 102.878 108.266 103.1 108.35 103.26C108.433 103.42 108.608 103.517 108.782 103.545C108.956 103.573 109.152 103.531 109.27 103.399C109.305 103.357 109.34 103.309 109.382 103.274C109.43 103.225 109.5 103.204 109.563 103.177C109.918 103.017 110.156 102.538 109.918 102.232C109.835 102.128 109.716 102.066 109.591 102.024C109.249 101.906 108.866 101.92 108.538 102.073C108.161 102.246 107.855 102.579 107.45 102.67C107.353 102.691 107.248 102.698 107.15 102.725C106.99 102.774 106.851 102.878 106.732 102.996C106.502 103.225 106.328 103.51 106.23 103.816C106.195 103.934 106.167 104.059 106.202 104.177C106.279 104.434 106.6 104.517 106.865 104.566C107.346 104.663 107.82 104.802 108.28 104.982C108.51 105.073 108.733 105.177 108.977 105.218C109.437 105.302 109.939 105.163 110.281 104.85C110.365 104.774 110.441 104.684 110.546 104.635C110.741 104.538 111.006 104.573 111.146 104.406C111.215 104.316 111.236 104.191 111.313 104.114C111.369 104.059 111.438 104.038 111.508 104.01C111.961 103.816 112.268 103.323 112.24 102.829C112.233 102.67 112.192 102.51 112.205 102.35C112.219 102.149 112.331 101.954 112.498 101.836C112.652 101.725 112.861 101.677 113.042 101.739C113.223 101.802 113.363 101.982 113.349 102.177C113.642 102.323 113.823 102.677 113.767 103.003C113.712 103.329 113.426 103.6 113.098 103.642C113.342 103.607 113.203 102.892 113.007 102.809C112.756 102.698 112.568 102.892 112.519 103.114C112.463 103.357 112.554 103.579 112.422 103.816C112.226 104.093 111.878 104.198 111.571 104.267Z" fill="black"/>
<path opacity="0.58" d="M96.8799 120.711C96.5174 120.899 96.1478 121.093 95.8759 121.399C95.604 121.698 95.4436 122.135 95.5691 122.517C95.597 122.593 95.6319 122.67 95.6388 122.753C95.6458 122.85 95.604 122.941 95.597 123.031C95.5761 123.253 95.7225 123.468 95.9108 123.593C96.099 123.718 96.3291 123.76 96.5522 123.802C96.866 123.857 97.2076 123.899 97.4726 123.718C97.6678 123.586 97.7794 123.371 97.9467 123.211C98.2884 122.892 98.8183 122.878 99.2297 122.656C99.4946 122.51 99.7108 122.267 99.8014 121.982C99.892 121.698 99.8432 121.364 99.662 121.121C100.011 120.823 100.359 120.524 100.715 120.225C100.924 120.052 101.133 119.871 101.384 119.767C101.635 119.663 101.935 119.649 102.165 119.788C102.556 119.42 103.162 119.225 103.643 119.468C103.915 119.607 104.11 119.864 104.292 120.114C104.396 120.253 104.508 120.413 104.494 120.593C104.48 120.843 104.243 121.01 104.006 121.1C103.797 121.184 103.56 121.232 103.343 121.156C103.127 121.08 102.96 120.85 103.023 120.635C103.218 120.614 103.42 120.642 103.601 120.711C103.594 120.566 103.469 120.455 103.329 120.42C103.19 120.385 103.044 120.406 102.904 120.427C102.758 120.455 102.604 120.489 102.486 120.573C102.249 120.746 102.221 121.121 102.402 121.35C102.583 121.58 102.939 121.635 103.197 121.496C103.399 121.802 103.797 121.955 104.166 121.913C104.536 121.871 104.863 121.649 105.087 121.35C105.268 121.107 105.379 120.802 105.296 120.51C105.212 120.225 104.884 120.003 104.605 120.107C104.731 119.982 104.71 119.767 104.605 119.621C104.501 119.475 104.34 119.392 104.18 119.309C103.894 119.163 103.601 119.024 103.281 118.975C102.688 118.885 102.102 119.114 101.524 119.267C100.764 119.468 99.9409 119.545 99.2924 119.982C98.8043 120.316 98.4557 120.85 98.3442 121.434C98.3999 121.42 98.4557 121.406 98.5185 121.392C97.8282 121.802 97.1588 122.211 96.4476 122.586C96.4686 122.559 96.4755 122.531 96.4755 122.496C96.3988 122.482 96.3291 122.545 96.2524 122.566C96.106 122.593 95.9875 122.455 95.9247 122.323C95.8271 122.128 95.7783 121.892 95.8689 121.691C96.0711 121.309 96.7753 121.135 96.8799 120.711Z" fill="black"/>
<path d="M69.8267 128.288C74.7702 126.663 79.5533 124.552 84.0785 121.989C89.1266 119.135 93.8399 115.732 98.5324 112.33C106.237 106.753 113.969 101.128 120.677 94.392C117.463 95.3087 114.353 96.5934 111.432 98.2184C118.02 93.6628 125.084 89.7809 132.467 86.6559C133.701 86.135 135.437 85.7878 136.114 86.9406C136.483 87.5795 136.302 88.385 136.009 89.0656C134.775 91.9614 132.007 93.8573 129.379 95.5934C116.563 104.052 103.748 112.51 90.9394 120.968C88.2829 122.725 85.6264 124.475 82.9001 126.128C78.8212 128.607 74.6029 130.857 70.2799 132.864C67.4003 134.198 64.4231 135.441 61.2715 135.843C60.881 133.92 62.4917 132.225 63.9559 130.92C66.5845 128.586 69.2132 126.246 71.8418 123.913C73.1805 122.718 74.5262 121.531 75.8649 120.336C76.6807 119.614 82.1192 116.357 82.1192 116.357C82.1192 116.357 79.3581 118.357 78.9258 118.691C77.7754 119.58 71.284 125.663 69.8267 128.288Z" fill="url(#paint11_linear_235_512)"/>
</g>
<defs>
<linearGradient id="paint0_linear_235_512" x1="11.1856" y1="57.0676" x2="15.6841" y2="55.9965" gradientUnits="userSpaceOnUse">
<stop stop-color="#00EFA9"/>
<stop offset="1" stop-color="#3F56F0"/>
</linearGradient>
<linearGradient id="paint1_linear_235_512" x1="37.4727" y1="12.8476" x2="51.0416" y2="12.1751" gradientUnits="userSpaceOnUse">
<stop stop-color="#FFAB67"/>
<stop offset="0.0554" stop-color="#FF9F6C"/>
<stop offset="0.3301" stop-color="#FF6784"/>
<stop offset="0.4627" stop-color="#FF518D"/>
<stop offset="1" stop-color="#5E309D"/>
</linearGradient>
<linearGradient id="paint2_linear_235_512" x1="53.3677" y1="102.361" x2="64.8648" y2="99.5685" gradientUnits="userSpaceOnUse">
<stop stop-color="#ED6CCD"/>
<stop offset="1" stop-color="#005184"/>
</linearGradient>
<linearGradient id="paint3_linear_235_512" x1="-18.5488" y1="5.34001" x2="-11.4233" y2="8.39966" gradientUnits="userSpaceOnUse">
<stop stop-color="#00EFA9"/>
<stop offset="1" stop-color="#3F56F0"/>
</linearGradient>
<linearGradient id="paint4_linear_235_512" x1="73.1619" y1="57.0676" x2="77.6605" y2="55.9965" gradientUnits="userSpaceOnUse">
<stop stop-color="#00EFA9"/>
<stop offset="1" stop-color="#3F56F0"/>
</linearGradient>
<linearGradient id="paint5_linear_235_512" x1="50.8267" y1="48.0331" x2="53.6918" y2="47.3504" gradientUnits="userSpaceOnUse">
<stop stop-color="#FFAB67"/>
<stop offset="0.0554" stop-color="#FF9F6C"/>
<stop offset="0.3301" stop-color="#FF6784"/>
<stop offset="0.4627" stop-color="#FF518D"/>
<stop offset="1" stop-color="#5E309D"/>
</linearGradient>
<linearGradient id="paint6_linear_235_512" x1="99.449" y1="12.8476" x2="113.018" y2="12.1751" gradientUnits="userSpaceOnUse">
<stop stop-color="#FFAB67"/>
<stop offset="0.0554" stop-color="#FF9F6C"/>
<stop offset="0.3301" stop-color="#FF6784"/>
<stop offset="0.4627" stop-color="#FF518D"/>
<stop offset="1" stop-color="#5E309D"/>
</linearGradient>
<linearGradient id="paint7_linear_235_512" x1="-9.63478" y1="75.9407" x2="1.86226" y2="73.1485" gradientUnits="userSpaceOnUse">
<stop stop-color="#ED6CCD"/>
<stop offset="1" stop-color="#005184"/>
</linearGradient>
<linearGradient id="paint8_linear_235_512" x1="95.7968" y1="40.9667" x2="100.295" y2="39.8956" gradientUnits="userSpaceOnUse">
<stop stop-color="#00EFA9"/>
<stop offset="1" stop-color="#3F56F0"/>
</linearGradient>
<linearGradient id="paint9_linear_235_512" x1="70.042" y1="99.2891" x2="72.9071" y2="98.6064" gradientUnits="userSpaceOnUse">
<stop stop-color="#FFAB67"/>
<stop offset="0.0554" stop-color="#FF9F6C"/>
<stop offset="0.3301" stop-color="#FF6784"/>
<stop offset="0.4627" stop-color="#FF518D"/>
<stop offset="1" stop-color="#5E309D"/>
</linearGradient>
<linearGradient id="paint10_linear_235_512" x1="77.4233" y1="109.295" x2="137.384" y2="113.962" gradientUnits="userSpaceOnUse">
<stop stop-color="#FFAB67"/>
<stop offset="0.0554" stop-color="#FF9F6C"/>
<stop offset="0.3301" stop-color="#FF6784"/>
<stop offset="0.4627" stop-color="#FF518D"/>
<stop offset="1" stop-color="#5E309D"/>
</linearGradient>
<linearGradient id="paint11_linear_235_512" x1="61.2087" y1="111.009" x2="136.319" y2="111.009" gradientUnits="userSpaceOnUse">
<stop stop-color="#00EFA9"/>
<stop offset="1" stop-color="#3F56F0"/>
</linearGradient>
</defs>
</svg>
